<mxfile host="Electron" modified="2023-11-23T04:56:01.832Z" agent="Mozilla/5.0 (Windows NT 10.0; Win64; x64) AppleWebKit/537.36 (KHTML, like Gecko) draw.io/22.0.3 Chrome/114.0.5735.289 Electron/25.8.4 Safari/537.36" etag="H4rBN5_oS34wBjFg8XsR" version="22.0.3" type="device">
  <diagram name="Page-1" id="IepHCpKv9yjBZjDDO-g9">
    <mxGraphModel dx="934" dy="601" grid="1" gridSize="10" guides="1" tooltips="1" connect="1" arrows="1" fold="1" page="1" pageScale="1" pageWidth="850" pageHeight="1100" math="0" shadow="0">
      <root>
        <mxCell id="0" />
        <mxCell id="1" parent="0" />
        <mxCell id="EExKJsX3iGTAKdfTUgkS-1" value="" style="rounded=0;whiteSpace=wrap;html=1;" vertex="1" parent="1">
          <mxGeometry x="40" y="120" width="760" height="360" as="geometry" />
        </mxCell>
        <mxCell id="EExKJsX3iGTAKdfTUgkS-2" value="" style="ellipse;whiteSpace=wrap;html=1;" vertex="1" parent="1">
          <mxGeometry x="80" y="155" width="300" height="290" as="geometry" />
        </mxCell>
        <mxCell id="EExKJsX3iGTAKdfTUgkS-3" value="" style="rounded=1;whiteSpace=wrap;html=1;" vertex="1" parent="1">
          <mxGeometry x="425" y="180" width="260" height="50" as="geometry" />
        </mxCell>
        <mxCell id="EExKJsX3iGTAKdfTUgkS-4" value="" style="rounded=1;whiteSpace=wrap;html=1;" vertex="1" parent="1">
          <mxGeometry x="425" y="240" width="130" height="10" as="geometry" />
        </mxCell>
        <mxCell id="EExKJsX3iGTAKdfTUgkS-5" value="" style="rounded=1;whiteSpace=wrap;html=1;" vertex="1" parent="1">
          <mxGeometry x="420" y="270" width="270" height="180" as="geometry" />
        </mxCell>
      </root>
    </mxGraphModel>
  </diagram>
</mxfile>
